<svg width="512" height="512" viewBox="0 0 512 512" fill="none" xmlns="http://www.w3.org/2000/svg">
<rect width="512" height="512" rx="128" fill="#1B365D"/>
<path d="M140 360V152H188V316H296V360H140ZM324 364C308 364 294.667 360.533 284 353.6C273.333 346.667 268 338.133 268 328H312C313.333 333.333 317.333 336 324 336C329.333 336 333.6 334.667 336.8 332C340 329.333 341.6 325.867 341.6 321.6C341.6 317.867 340.267 314.933 337.6 312.8C334.933 310.667 330.667 308.533 324.8 306.4L308.8 300.8C296.533 296.533 286.933 290.8 280 283.6C273.067 276.4 269.6 267.467 269.6 256.8C269.6 244.533 274.133 234.8 283.2 227.6C292.267 220.4 304.533 216.8 320 216.8C334.4 216.8 346 220.267 354.8 227.2C363.6 234.133 368.533 242.933 369.6 253.6H327.2C326.133 248.8 323.733 246.4 320 246.4C315.2 246.4 311.6 247.733 309.2 250.4C306.8 253.067 305.6 256.267 305.6 260C305.6 263.2 306.933 265.867 309.6 268C312.267 270.133 316.533 272.267 322.4 274.4L339.2 280.4C352.533 285.2 362.667 291.067 369.6 298C376.533 304.933 380 313.6 380 324C380 336.8 375.067 346.8 365.2 354C355.333 360.667 341.6 364 324 364Z" fill="white"/>
</svg>
